<?xml version="1.0" encoding="utf-8"?>
<svg version="1.1" id="Ebene_1" xmlns="http://www.w3.org/2000/svg" xmlns:xlink="http://www.w3.org/1999/xlink" x="0px" y="0px"
	 viewBox="0 0 150.3 120.7" enable-background="new 0 0 150.3 120.7" xml:space="preserve">
<path fill="#ffffff" d="M136.5,27.7H13.8C6.2,27.7,0,21.5,0,13.8v0C0,6.2,6.2,0,13.8,0h122.7c7.6,0,13.8,6.2,13.8,13.8v0
	C150.3,21.5,144.1,27.7,136.5,27.7z"/>
<path fill="#ffffff" d="M136.5,74.2H13.8C6.2,74.2,0,68,0,60.3v0c0-7.6,6.2-13.8,13.8-13.8h122.7c7.6,0,13.8,6.2,13.8,13.8v0
	C150.3,68,144.1,74.2,136.5,74.2z"/>
<path fill="#ffffff" d="M136.5,120.7H13.8c-7.6,0-13.8-6.2-13.8-13.8v0C0,99.2,6.2,93,13.8,93h122.7c7.6,0,13.8,6.2,13.8,13.8v0
	C150.3,114.5,144.1,120.7,136.5,120.7z"/>
</svg>
