<?xml version="1.0" encoding="utf-8"?>
<svg version="1.1" id="Ebene_1" xmlns="http://www.w3.org/2000/svg" xmlns:xlink="http://www.w3.org/1999/xlink" x="0px" y="0px"
	 viewBox="0 0 114.4 114.4" enable-background="new 0 0 114.4 114.4" xml:space="preserve">
<path fill="#010202" d="M76.8,57.2l33.6-33.6c5.4-5.4,5.4-14.2,0-19.6v0c-5.4-5.4-14.2-5.4-19.6,0L57.2,37.6L23.6,4.1
	c-5.4-5.4-14.2-5.4-19.6,0l0,0c-5.4,5.4-5.4,14.2,0,19.6l33.6,33.6L4.1,90.8c-5.4,5.4-5.4,14.2,0,19.6h0c5.4,5.4,14.2,5.4,19.6,0
	l33.6-33.6l33.6,33.6c5.4,5.4,14.2,5.4,19.6,0c5.4-5.4,5.4-14.2,0-19.6L76.8,57.2z"/>
</svg>
