<?xml version="1.0" encoding="utf-8"?>
<!-- Generator: Adobe Illustrator 17.1.0, SVG Export Plug-In . SVG Version: 6.00 Build 0)  -->
<!DOCTYPE svg PUBLIC "-//W3C//DTD SVG 1.1//EN" "http://www.w3.org/Graphics/SVG/1.1/DTD/svg11.dtd">
<svg version="1.1" id="Ebene_1" xmlns="http://www.w3.org/2000/svg" xmlns:xlink="http://www.w3.org/1999/xlink" x="0px" y="0px"
	 viewBox="0 0 188.7 291.7" enable-background="new 0 0 188.7 291.7" xml:space="preserve">
<path fill="#FFFFFF" d="M0,42.9C0,19.2,19.2,0,42.9,0c23.7,0,42.9,19.2,42.9,42.9c0,23.7-19.2,42.9-42.9,42.9
	C19.2,85.8,0,66.6,0,42.9"/>
<path fill="#FFFFFF" d="M0,248.8c0-23.7,19.2-42.9,42.9-42.9c23.7,0,42.9,19.2,42.9,42.9c0,23.7-19.2,42.9-42.9,42.9
	C19.2,291.7,0,272.5,0,248.8"/>
<path fill="#FFFFFF" d="M126,145.8c0-11,8.9-19.9,19.9-19.9c11,0,19.9,8.9,19.9,19.9c0,11-8.9,19.9-19.9,19.9
	C134.9,165.7,126,156.8,126,145.8"/>
<path fill="#FFFFFF" d="M102.9,248.8c0-23.7,19.2-42.9,42.9-42.9s42.9,19.2,42.9,42.9c0,23.7-19.2,42.9-42.9,42.9
	S102.9,272.5,102.9,248.8"/>
<path fill="#FFFFFF" d="M23,145.8c0-11,8.9-19.9,19.9-19.9c11,0,19.9,8.9,19.9,19.9c0,11-8.9,19.9-19.9,19.9
	C31.9,165.7,23,156.8,23,145.8"/>
<path fill="#FFFFFF" d="M126,42.9c0-11,8.9-19.9,19.9-19.9c11,0,19.9,8.9,19.9,19.9c0,11-8.9,19.9-19.9,19.9
	C134.9,62.8,126,53.9,126,42.9"/>
</svg>
