<svg xmlns="http://www.w3.org/2000/svg" style="display: none;">
	<defs>
	
		<symbol id="svg-huku-logo" viewBox="0 0 188.7 291.7">
			<path d="M0,42.9C0,19.2,19.2,0,42.9,0c23.7,0,42.9,19.2,42.9,42.9c0,23.7-19.2,42.9-42.9,42.9C19.2,85.8,0,66.6,0,42.9"/>
			<path d="M0,248.8c0-23.7,19.2-42.9,42.9-42.9c23.7,0,42.9,19.2,42.9,42.9c0,23.7-19.2,42.9-42.9,42.9C19.2,291.7,0,272.5,0,248.8"/>
			<path d="M126,145.8c0-11,8.9-19.9,19.9-19.9c11,0,19.9,8.9,19.9,19.9c0,11-8.9,19.9-19.9,19.9C134.9,165.7,126,156.8,126,145.8"/>
			<path d="M102.9,248.8c0-23.7,19.2-42.9,42.9-42.9s42.9,19.2,42.9,42.9c0,23.7-19.2,42.9-42.9,42.9S102.9,272.5,102.9,248.8"/>
			<path d="M23,145.8c0-11,8.9-19.9,19.9-19.9c11,0,19.9,8.9,19.9,19.9c0,11-8.9,19.9-19.9,19.9C31.9,165.7,23,156.8,23,145.8"/>
			<path d="M126,42.9c0-11,8.9-19.9,19.9-19.9c11,0,19.9,8.9,19.9,19.9c0,11-8.9,19.9-19.9,19.9C134.9,62.8,126,53.9,126,42.9"/>
		</symbol>
		
		
		
		
		
	</defs>
</svg>